<svg width="36" height="36" viewBox="0 0 36 36" fill="none" xmlns="http://www.w3.org/2000/svg">
<path fill-rule="evenodd" clip-rule="evenodd" d="M12.75 4.5C11.7554 4.5 10.8016 4.89509 10.0984 5.59835C9.39509 6.30161 9 7.25544 9 8.25C9 9.24456 9.39509 10.1984 10.0984 10.9017C10.8016 11.6049 11.7554 12 12.75 12H16.5V4.5H12.75ZM19.5 4.5V12H23.25C23.7425 12 24.2301 11.903 24.6851 11.7145C25.14 11.5261 25.5534 11.2499 25.9017 10.9017C26.2499 10.5534 26.5261 10.14 26.7145 9.68506C26.903 9.23009 27 8.74246 27 8.25C27 7.75754 26.903 7.26991 26.7145 6.81494C26.5261 6.35996 26.2499 5.94657 25.9017 5.59835C25.5534 5.25013 25.14 4.97391 24.6851 4.78545C24.2301 4.597 23.7425 4.5 23.25 4.5H19.5ZM27.4926 13.5C27.6773 13.3507 27.8544 13.1915 28.023 13.023C28.6498 12.3962 29.147 11.6521 29.4862 10.8331C29.8254 10.0142 30 9.13642 30 8.25C30 7.36358 29.8254 6.48583 29.4862 5.66689C29.147 4.84794 28.6498 4.10383 28.023 3.47703C27.3962 2.85023 26.6521 2.35303 25.8331 2.01381C25.0142 1.67459 24.1364 1.5 23.25 1.5H12.75C10.9598 1.5 9.2429 2.21116 7.97703 3.47703C6.71116 4.7429 6 6.45979 6 8.25C6 10.0402 6.71116 11.7571 7.97703 13.023C8.14605 13.192 8.32312 13.3511 8.50732 13.5C8.32312 13.6489 8.14605 13.808 7.97703 13.977C6.71116 15.2429 6 16.9598 6 18.75C6 20.5402 6.71116 22.2571 7.97703 23.523C8.14605 23.692 8.32312 23.8511 8.50733 24C8.32312 24.1489 8.14605 24.308 7.97703 24.477C6.71116 25.7429 6 27.4598 6 29.25C6 31.0402 6.71116 32.7571 7.97703 34.023C9.2429 35.2888 10.9598 36 12.75 36C14.5402 36 16.2571 35.2888 17.523 34.023C18.7888 32.7571 19.5 31.0402 19.5 29.25V24.3625C19.8667 24.6075 20.2575 24.8166 20.6669 24.9862C21.4858 25.3254 22.3636 25.5 23.25 25.5C24.1364 25.5 25.0142 25.3254 25.8331 24.9862C26.6521 24.647 27.3962 24.1498 28.023 23.523C28.6498 22.8962 29.147 22.1521 29.4862 21.3331C29.8254 20.5142 30 19.6364 30 18.75C30 17.8636 29.8254 16.9858 29.4862 16.1669C29.147 15.3479 28.6498 14.6038 28.023 13.977C27.8544 13.8085 27.6773 13.6493 27.4926 13.5ZM16.5 22.5V15H12.75C11.7554 15 10.8016 15.3951 10.0984 16.0983C9.39509 16.8016 9 17.7554 9 18.75C9 19.7446 9.39509 20.6984 10.0984 21.4016C10.8016 22.1049 11.7554 22.5 12.75 22.5H16.5ZM16.5 25.5H12.75C11.7554 25.5 10.8016 25.8951 10.0984 26.5983C9.39509 27.3016 9 28.2554 9 29.25C9 30.2446 9.39509 31.1984 10.0984 31.9016C10.8016 32.6049 11.7554 33 12.75 33C13.7446 33 14.6984 32.6049 15.4017 31.9016C16.1049 31.1984 16.5 30.2446 16.5 29.25V25.5ZM23.25 15C22.7575 15 22.2699 15.097 21.8149 15.2855C21.36 15.4739 20.9466 15.7501 20.5983 16.0983C20.2501 16.4466 19.9739 16.86 19.7855 17.3149C19.597 17.7699 19.5 18.2575 19.5 18.75C19.5 19.2425 19.597 19.7301 19.7855 20.1851C19.9739 20.64 20.2501 21.0534 20.5983 21.4016C20.9466 21.7499 21.36 22.0261 21.8149 22.2145C22.2699 22.403 22.7575 22.5 23.25 22.5C23.7425 22.5 24.2301 22.403 24.6851 22.2145C25.14 22.0261 25.5534 21.7499 25.9017 21.4016C26.2499 21.0534 26.5261 20.64 26.7145 20.1851C26.903 19.7301 27 19.2425 27 18.75C27 18.2575 26.903 17.7699 26.7145 17.3149C26.5261 16.86 26.2499 16.4466 25.9017 16.0983C25.5534 15.7501 25.14 15.4739 24.6851 15.2855C24.2301 15.097 23.7425 15 23.25 15Z" fill="#6B7280"/>
</svg>
